<svg xmlns="http://www.w3.org/2000/svg" width="340" height="200" viewBox="0 0 340 200"><style>* {
          font-family: 'Segoe UI', Ubuntu, "Helvetica Neue", Sans-Serif
        }</style><rect x="1" y="1" rx="5" ry="5" height="99%" width="99.41176470588235%" stroke="#eceff4" stroke-width="1" fill="#2e3440" stroke-opacity="1"/><text x="30" y="40" style="font-size: 22px; fill: #eceff4;">
        Top Languages by Commit</text><g transform="translate(0,40)"><g transform="translate(40,0)"><rect y="18" width="14" height="14" fill="#00B4AB" stroke="#2e3440" style="stroke-width: 1px;"/><rect y="43.2" width="14" height="14" fill="#563d7c" stroke="#2e3440" style="stroke-width: 1px;"/><rect y="68.4" width="14" height="14" fill="#3572A5" stroke="#2e3440" style="stroke-width: 1px;"/><rect y="93.60000000000002" width="14" height="14" fill="#f34b7d" stroke="#2e3440" style="stroke-width: 1px;"/><rect y="118.80000000000001" width="14" height="14" fill="#f1e05a" stroke="#2e3440" style="stroke-width: 1px;"/><text x="16.8" y="30" style="fill: #e5e9f0; font-size: 14px;">
        Java</text><text x="16.8" y="55.2" style="fill: #e5e9f0; font-size: 14px;">
        JavaScript</text><text x="16.8" y="80.4" style="fill: #e5e9f0; font-size: 14px;">
        HTML</text><text x="16.8" y="105.60000000000002" style="fill: #e5e9f0; font-size: 14px;">
        CSS</text><text x="16.8" y="130.8" style="fill: #e5e9f0; font-size: 14px;">
        Other</text></g><g transform="translate( 230, 80 )"><g class="arc"><path d="M3.67394039744206e-15,-60A60,60,0,1,1,-58.460841923745285,13.502961214743454L-34.102157788851414,7.876727375267015A35,35,0,1,0,2.1431318985078682e-15,-35Z" style="fill: #00B4AB; stroke-width: 2px;" stroke="#2e3440"/></g><g class="arc"><path d="M-58.460841923745285,13.502961214743454A60,60,0,0,1,-50.44841905682739,-32.48010182660663L-29.428244449815978,-18.946726065520533A35,35,0,0,0,-34.102157788851414,7.876727375267015Z" style="fill: #563d7c; stroke-width: 2px;" stroke="#2e3440"/></g><g class="arc"><path d="M-50.44841905682739,-32.48010182660663A60,60,0,0,1,-32.936815592200006,-50.15143246852886L-19.213142428783335,-29.255002273308502A35,35,0,0,0,-29.428244449815978,-18.946726065520533Z" style="fill: #3572A5; stroke-width: 2px;" stroke="#2e3440"/></g><g class="arc"><path d="M-32.936815592200006,-50.15143246852886A60,60,0,0,1,-16.491686562128837,-57.689030797340486L-9.620150494575155,-33.65193463178195A35,35,0,0,0,-19.213142428783335,-29.255002273308502Z" style="fill: #f34b7d; stroke-width: 2px;" stroke="#2e3440"/></g><g class="arc"><path d="M-16.491686562128837,-57.689030797340486A60,60,0,0,1,-1.1021821192326178e-14,-60L-6.429395695523604e-15,-35A35,35,0,0,0,-9.620150494575155,-33.65193463178195Z" style="fill: #f1e05a; stroke-width: 2px;" stroke="#2e3440"/></g></g></g></svg>